<?xml version="1.0" standalone="no"?>
<!DOCTYPE svg PUBLIC "-//W3C//DTD SVG 20010904//EN"
 "http://www.w3.org/TR/2001/REC-SVG-20010904/DTD/svg10.dtd">
<svg version="1.0" xmlns="http://www.w3.org/2000/svg"
 width="700.000000pt" height="700.000000pt" viewBox="0 0 700.000000 700.000000"
 preserveAspectRatio="xMidYMid meet">
<metadata>
Created by potrace 1.11, written by Peter Selinger 2001-2013
</metadata>
<g transform="translate(0.000000,700.000000) scale(0.100000,-0.100000)"
fill="#000000" stroke="none">
<path d="M3716 6826 c-24 -45 -64 -119 -88 -166 -25 -47 -62 -116 -83 -155
-20 -38 -60 -113 -88 -165 -27 -52 -67 -126 -87 -165 -21 -38 -63 -119 -95
-180 -32 -60 -77 -146 -100 -190 -55 -103 -215 -413 -229 -442 -6 -13 -18 -24
-26 -24 -73 -8 -141 3 -171 29 -29 24 -74 89 -171 243 -46 74 -92 146 -102
161 l-18 28 48 -6 c27 -3 65 -10 84 -15 19 -4 50 -11 68 -14 65 -11 228 -67
295 -102 38 -19 70 -33 71 -31 13 18 46 81 46 87 0 10 -112 62 -205 95 -89 32
-252 72 -330 81 -33 4 -71 9 -85 11 -14 2 -60 6 -103 10 -111 9 -109 11 -207
-246 -18 -47 -39 -98 -46 -115 -7 -16 -42 -102 -78 -191 -98 -242 -199 -471
-286 -644 -88 -176 -120 -233 -196 -343 -30 -43 -54 -82 -54 -87 0 -5 -4 -10
-8 -12 -4 -1 -30 -32 -57 -67 -27 -36 -129 -161 -228 -279 -289 -349 -408
-517 -495 -702 -36 -77 -79 -193 -87 -230 -2 -8 -8 -33 -13 -55 -25 -92 -36
-188 -36 -310 0 -115 11 -185 40 -265 43 -121 89 -188 198 -293 175 -169 407
-276 676 -311 145 -20 179 -24 255 -31 33 -3 76 -8 95 -11 19 -2 55 -6 80 -9
39 -5 97 -14 188 -31 44 -8 187 -56 242 -81 149 -69 212 -136 395 -424 138
-216 213 -311 299 -375 147 -111 523 -263 736 -299 19 -3 42 -8 50 -10 34 -10
161 -18 248 -17 163 3 340 53 448 126 159 107 254 265 359 596 149 468 168
513 313 706 48 66 95 126 103 134 8 8 27 31 43 50 24 30 109 125 197 221 271
294 409 482 534 724 37 72 111 216 165 320 217 421 258 646 157 853 -35 73
-81 117 -136 132 -89 24 -122 79 -146 245 -15 98 -23 131 -46 177 -10 20 -32
46 -49 58 l-30 21 -20 -46 c-20 -46 -20 -46 -1 -73 18 -25 33 -83 45 -177 9
-71 35 -154 61 -194 l25 -40 -43 -9 c-35 -7 -51 -5 -95 14 -50 22 -154 95
-181 128 -14 17 -10 28 54 171 13 28 35 79 50 115 15 36 36 83 46 105 10 22
73 171 139 330 67 160 128 304 135 320 8 17 91 217 186 445 140 340 256 616
396 948 l14 33 -1511 -2 -1510 -2 -44 -81z m-1349 -1083 c27 -38 82 -122 123
-188 167 -270 202 -303 340 -322 19 -3 36 -6 38 -8 1 -1 -103 -211 -231 -466
-323 -640 -407 -837 -467 -1093 -20 -82 -23 -100 -45 -241 -18 -118 -13 -431
9 -520 54 -217 145 -374 316 -545 131 -131 232 -203 411 -291 245 -121 654
-175 934 -124 319 58 583 202 836 454 125 126 218 256 365 511 115 201 355
680 514 1025 23 50 52 113 65 140 13 28 44 97 70 155 25 58 49 108 53 112 4 3
36 -16 72 -43 139 -105 210 -121 359 -83 102 26 112 22 153 -52 25 -46 41
-110 43 -179 2 -73 -44 -261 -82 -335 -7 -14 -13 -29 -13 -33 0 -10 -93 -196
-215 -432 -89 -173 -198 -363 -225 -393 -8 -9 -34 -43 -58 -75 -35 -47 -141
-174 -187 -223 -5 -6 -46 -51 -90 -100 -44 -48 -93 -102 -109 -119 -15 -16
-44 -50 -65 -74 -20 -24 -43 -51 -52 -60 -16 -16 -117 -143 -152 -192 -61 -84
-104 -155 -142 -234 -40 -84 -61 -145 -180 -515 -92 -287 -176 -424 -316 -513
-60 -38 -174 -80 -259 -95 -82 -15 -309 -7 -380 13 -8 2 -31 7 -50 10 -112 19
-280 77 -455 158 -217 101 -289 164 -425 376 -47 73 -112 173 -144 224 -34 54
-96 128 -146 179 -73 72 -102 93 -181 131 -122 59 -212 89 -337 112 -13 2 -31
6 -40 9 -18 5 -86 14 -161 21 -24 3 -60 7 -80 9 -20 3 -63 8 -96 11 -133 12
-235 28 -333 51 -104 24 -244 76 -273 100 -8 8 -19 14 -23 14 -19 0 -139 92
-207 160 -137 136 -182 249 -183 455 -1 186 8 248 59 402 82 246 192 415 565
863 305 367 396 502 550 815 124 254 213 459 375 870 87 220 93 235 100 235 2
0 25 -30 52 -67z"/>
<path d="M1035 3066 c-24 -36 -6 -60 68 -97 137 -69 251 -155 282 -212 l18
-35 -28 -53 c-53 -101 -32 -185 77 -304 88 -96 258 -230 322 -255 21 -8 30 -6
46 10 37 37 26 55 -92 143 -164 123 -278 246 -278 300 0 10 11 39 24 65 13 26
27 63 30 82 15 95 -116 229 -339 344 -82 42 -109 45 -130 12z"/>
<path d="M3493 1477 c-25 -11 -33 -34 -23 -63 12 -30 171 -187 243 -238 134
-95 214 -106 311 -42 31 21 67 36 84 36 55 0 119 -86 156 -209 9 -29 21 -60
27 -67 18 -22 57 -17 75 11 14 22 14 29 -1 82 -24 84 -71 174 -112 217 -89 91
-157 92 -312 6 -31 -17 -37 -18 -70 -4 -66 27 -141 84 -236 178 -52 51 -100
96 -107 98 -7 3 -23 1 -35 -5z"/>
</g>
</svg>
