<?xml version="1.0" encoding="UTF-8" standalone="no"?>
<svg
   xmlns:osb="http://www.openswatchbook.org/uri/2009/osb"
   xmlns:dc="http://purl.org/dc/elements/1.1/"
   xmlns:cc="http://creativecommons.org/ns#"
   xmlns:rdf="http://www.w3.org/1999/02/22-rdf-syntax-ns#"
   xmlns:svg="http://www.w3.org/2000/svg"
   xmlns="http://www.w3.org/2000/svg"
   xmlns:sodipodi="http://sodipodi.sourceforge.net/DTD/sodipodi-0.dtd"
   xmlns:inkscape="http://www.inkscape.org/namespaces/inkscape"
   width="200mm"
   height="200mm"
   viewBox="0 0 200 200"
   version="1.1"
   id="svg8"
   inkscape:version="1.0.1 (3bc2e813f5, 2020-09-07)"
   sodipodi:docname="grabyourshit-paw.svg">
  <defs
     id="defs2">
    <linearGradient
       id="linearGradient3066"
       osb:paint="solid">
      <stop
         style="stop-color:#000000;stop-opacity:1;"
         offset="0"
         id="stop3064" />
    </linearGradient>
  </defs>
  <sodipodi:namedview
     id="base"
     pagecolor="#ffffff"
     bordercolor="#666666"
     borderopacity="1.0"
     inkscape:pageopacity="0.0"
     inkscape:pageshadow="2"
     inkscape:zoom="0.49497475"
     inkscape:cx="346.20484"
     inkscape:cy="400.6989"
     inkscape:document-units="mm"
     inkscape:current-layer="layer2"
     inkscape:document-rotation="0"
     showgrid="true"
     showguides="true"
     inkscape:object-paths="true"
     inkscape:window-width="1366"
     inkscape:window-height="716"
     inkscape:window-x="0"
     inkscape:window-y="24"
     inkscape:window-maximized="1">
    <inkscape:grid
       type="xygrid"
       id="grid18"
       visible="true"
       enabled="false" />
  </sodipodi:namedview>
  <metadata
     id="metadata5">
    <rdf:RDF>
      <cc:Work
         rdf:about="">
        <dc:format>image/svg+xml</dc:format>
        <dc:type
           rdf:resource="http://purl.org/dc/dcmitype/StillImage" />
        <dc:title />
      </cc:Work>
    </rdf:RDF>
  </metadata>
  <g
     inkscape:groupmode="layer"
     id="layer2"
     inkscape:label="Paw"
     style="display:inline">
    <g
       id="g3156"
       transform="matrix(0.47458226,0,0,0.47458226,212.17112,15.148449)">
      <g
         id="g3110"
         style="fill:#000000;fill-opacity:1;stroke:none"
         transform="matrix(-0.55798558,-0.358893,0.358893,-0.55798558,-186.99811,413.59212)">
        <path
           d="m 428.55,154.69 c -3.86,21.89 -16.21,39.72 -32.37,48.96 -7.35,4.2 -10.62,13.17 -7.77,21.14 3.71,10.33 5.22,21.3 4.25,32.37 -0.67,7.59 -2.48,14.75 -5.3,21.34 -20.15,55.77 -41.94,147.56 -44.92,217.82 C 315.56,506.45 286.43,512 256,512 c -30.46,0 -59.61,-5.56 -86.51,-15.71 -2.99,-70.25 -24.76,-162.02 -44.92,-217.79 -2.81,-6.59 -4.62,-13.75 -5.29,-21.34 -0.97,-11.07 0.54,-22.04 4.24,-32.37 2.86,-7.97 -0.41,-16.94 -7.76,-21.14 -16.16,-9.24 -28.51,-27.07 -32.37,-48.96 -2.88,-16.32 -0.57,-32.75 6.5,-46.28 7.89,-15.11 21.22,-25.32 36.57,-28.03 2.73,-0.48 5.52,-0.72 8.29,-0.72 h 0.21 c 9.58,0.04 17.67,-7.21 18.24,-16.77 0.42,-6.94 1.6,-13.64 3.48,-19.92 C 163.66,19.62 180.19,2.1 202.24,0.17 203.52,0.06 204.82,0 206.1,0 c 11.86,0 22.95,4.69 32.18,12.79 10.19,8.93 25.19,8.93 35.37,0 C 282.89,4.69 293.98,0 305.83,0 c 1.29,0 2.59,0.06 3.87,0.17 22.17,1.94 38.67,19.36 45.59,42.79 1.86,6.27 3.02,12.97 3.43,19.92 0.56,9.57 8.67,16.82 18.26,16.78 h 0.21 c 2.77,0 5.56,0.24 8.29,0.72 15.35,2.71 28.67,12.92 36.56,28.03 7.07,13.53 9.38,29.96 6.51,46.28 z"
           fill="#d85f35"
           id="path3108"
           style="fill:#000000;fill-opacity:1;stroke:none" />
      </g>
    </g>
    <g
       id="g1104"
       style="fill:#ffffff;fill-opacity:1;stroke:#000000;stroke-width:9.33883;stroke-miterlimit:4;stroke-dasharray:none;stroke-opacity:1"
       transform="matrix(-0.25054142,-0.15278291,0.15278291,-0.25054142,122.81884,204.2413)">
      <g
         id="g1008"
         style="fill:#ffffff;fill-opacity:1;stroke:#000000;stroke-width:9.33883;stroke-miterlimit:4;stroke-dasharray:none;stroke-opacity:1">
        <ellipse
           cx="208.528"
           cy="72.081001"
           fill="#574f7f"
           rx="34.673"
           ry="51.541"
           transform="matrix(0.996,-0.087,0.087,0.996,-5.489,18.449)"
           id="ellipse1006"
           style="fill:#ffffff;fill-opacity:1;stroke:#000000;stroke-width:9.34076;stroke-miterlimit:4;stroke-dasharray:none;stroke-opacity:1" />
      </g>
      <g
         id="g1012"
         style="fill:#ffffff;fill-opacity:1;stroke:#000000;stroke-width:9.33883;stroke-miterlimit:4;stroke-dasharray:none;stroke-opacity:1">
        <ellipse
           cx="137.868"
           cy="145.08"
           fill="#574f7f"
           rx="34.673"
           ry="45.050999"
           transform="matrix(0.985,-0.174,0.174,0.985,-23.098,26.145)"
           id="ellipse1010"
           style="fill:#ffffff;fill-opacity:1;stroke:#000000;stroke-width:9.33649;stroke-miterlimit:4;stroke-dasharray:none;stroke-opacity:1" />
      </g>
      <g
         id="g1020"
         style="fill:#ffffff;fill-opacity:1;stroke:#000000;stroke-width:9.33883;stroke-miterlimit:4;stroke-dasharray:none;stroke-opacity:1">
        <path
           d="m 338.902,196.481 c -44.63,-26.708 -43.927,-59.741 -82.934,-59.741 -39.007,0 -38.304,33.033 -82.934,59.741 -44.63,26.707 -43.224,83.285 -3.514,98.396 39.71,15.111 54.118,-20.031 86.448,-20.031 32.33,0 46.738,35.142 86.448,20.031 39.71,-15.111 41.116,-71.688 -3.514,-98.396 z"
           fill="#574f7f"
           id="path1018"
           style="fill:#ffffff;fill-opacity:1;stroke:#000000;stroke-width:9.33883;stroke-miterlimit:4;stroke-dasharray:none;stroke-opacity:1" />
      </g>
      <g
         id="g1028"
         style="fill:#ffffff;fill-opacity:1;stroke:#000000;stroke-width:9.33883;stroke-miterlimit:4;stroke-dasharray:none;stroke-opacity:1">
        <ellipse
           cx="303.41"
           cy="72.081001"
           fill="#574f7f"
           rx="51.541"
           ry="34.673"
           transform="matrix(0.087,-0.996,0.996,0.087,205.16,368.053)"
           id="ellipse1026"
           style="fill:#ffffff;fill-opacity:1;stroke:#000000;stroke-width:9.34076;stroke-miterlimit:4;stroke-dasharray:none;stroke-opacity:1" />
      </g>
      <g
         id="g1032"
         style="fill:#ffffff;fill-opacity:1;stroke:#000000;stroke-width:9.33883;stroke-miterlimit:4;stroke-dasharray:none;stroke-opacity:1">
        <ellipse
           cx="374.069"
           cy="145.08"
           fill="#574f7f"
           rx="45.050999"
           ry="34.673"
           transform="matrix(0.174,-0.985,0.985,0.174,166.236,488.273)"
           id="ellipse1030"
           style="fill:#ffffff;fill-opacity:1;stroke:#000000;stroke-width:9.33649;stroke-miterlimit:4;stroke-dasharray:none;stroke-opacity:1" />
      </g>
    </g>
  </g>
</svg>
