<?xml version="1.0" encoding="UTF-8" standalone="no"?>
<svg
   xmlns:osb="http://www.openswatchbook.org/uri/2009/osb"
   xmlns:dc="http://purl.org/dc/elements/1.1/"
   xmlns:cc="http://creativecommons.org/ns#"
   xmlns:rdf="http://www.w3.org/1999/02/22-rdf-syntax-ns#"
   xmlns:svg="http://www.w3.org/2000/svg"
   xmlns="http://www.w3.org/2000/svg"
   xmlns:sodipodi="http://sodipodi.sourceforge.net/DTD/sodipodi-0.dtd"
   xmlns:inkscape="http://www.inkscape.org/namespaces/inkscape"
   width="200mm"
   height="200mm"
   viewBox="0 0 200 200"
   version="1.1"
   id="svg8"
   inkscape:version="1.0.1 (3bc2e813f5, 2020-09-07)"
   sodipodi:docname="grabyourshit-icon-02.svg">
  <defs
     id="defs2">
    <inkscape:path-effect
       effect="powermask"
       id="path-effect1167"
       is_visible="true"
       lpeversion="1"
       uri="#mask-powermask-path-effect1167"
       invert="false"
       hide_mask="false"
       background="true"
       background_color="#ffffffff" />
    <inkscape:path-effect
       effect="powermask"
       id="path-effect242"
       is_visible="true"
       lpeversion="0"
       uri="#mask-powermask-path-effect242"
       invert="false"
       hide_mask="false"
       background="false"
       background_color="#ffffffff" />
    <linearGradient
       id="linearGradient3066"
       osb:paint="solid">
      <stop
         style="stop-color:#000000;stop-opacity:1;"
         offset="0"
         id="stop3064" />
    </linearGradient>
    <mask
       maskUnits="userSpaceOnUse"
       id="mask218">
      <g
         id="g240"
         style="display:inline;fill:#ffffff;fill-opacity:1;stroke:#000000;stroke-width:9.33883;stroke-miterlimit:4;stroke-dasharray:none;stroke-opacity:1"
         transform="matrix(-0.52791992,-0.32193135,0.32193135,-0.52791992,-188.2757,398.44063)">
        <g
           id="g222"
           style="fill:#ffffff;fill-opacity:1;stroke:#000000;stroke-width:9.33883;stroke-miterlimit:4;stroke-dasharray:none;stroke-opacity:1">
          <ellipse
             cx="208.528"
             cy="72.081001"
             fill="#574f7f"
             rx="34.673"
             ry="51.541"
             transform="matrix(0.996,-0.087,0.087,0.996,-5.489,18.449)"
             id="ellipse220"
             style="fill:#ffffff;fill-opacity:1;stroke:#000000;stroke-width:9.34076;stroke-miterlimit:4;stroke-dasharray:none;stroke-opacity:1" />
        </g>
        <g
           id="g226"
           style="fill:#ffffff;fill-opacity:1;stroke:#000000;stroke-width:9.33883;stroke-miterlimit:4;stroke-dasharray:none;stroke-opacity:1">
          <ellipse
             cx="137.868"
             cy="145.08"
             fill="#574f7f"
             rx="34.673"
             ry="45.050999"
             transform="matrix(0.985,-0.174,0.174,0.985,-23.098,26.145)"
             id="ellipse224"
             style="fill:#ffffff;fill-opacity:1;stroke:#000000;stroke-width:9.33649;stroke-miterlimit:4;stroke-dasharray:none;stroke-opacity:1" />
        </g>
        <g
           id="g230"
           style="fill:#ffffff;fill-opacity:1;stroke:#000000;stroke-width:9.33883;stroke-miterlimit:4;stroke-dasharray:none;stroke-opacity:1">
          <path
             d="m 338.902,196.481 c -44.63,-26.708 -43.927,-59.741 -82.934,-59.741 -39.007,0 -38.304,33.033 -82.934,59.741 -44.63,26.707 -43.224,83.285 -3.514,98.396 39.71,15.111 54.118,-20.031 86.448,-20.031 32.33,0 46.738,35.142 86.448,20.031 39.71,-15.111 41.116,-71.688 -3.514,-98.396 z"
             fill="#574f7f"
             id="path228"
             style="fill:#ffffff;fill-opacity:1;stroke:#000000;stroke-width:9.33883;stroke-miterlimit:4;stroke-dasharray:none;stroke-opacity:1" />
        </g>
        <g
           id="g234"
           style="fill:#ffffff;fill-opacity:1;stroke:#000000;stroke-width:9.33883;stroke-miterlimit:4;stroke-dasharray:none;stroke-opacity:1">
          <ellipse
             cx="303.41"
             cy="72.081001"
             fill="#574f7f"
             rx="51.541"
             ry="34.673"
             transform="matrix(0.087,-0.996,0.996,0.087,205.16,368.053)"
             id="ellipse232"
             style="fill:#ffffff;fill-opacity:1;stroke:#000000;stroke-width:9.34076;stroke-miterlimit:4;stroke-dasharray:none;stroke-opacity:1" />
        </g>
        <g
           id="g238"
           style="fill:#ffffff;fill-opacity:1;stroke:#000000;stroke-width:9.33883;stroke-miterlimit:4;stroke-dasharray:none;stroke-opacity:1">
          <ellipse
             cx="374.069"
             cy="145.08"
             fill="#574f7f"
             rx="45.050999"
             ry="34.673"
             transform="matrix(0.174,-0.985,0.985,0.174,166.236,488.273)"
             id="ellipse236"
             style="fill:#ffffff;fill-opacity:1;stroke:#000000;stroke-width:9.33649;stroke-miterlimit:4;stroke-dasharray:none;stroke-opacity:1" />
        </g>
      </g>
    </mask>
    <mask
       maskUnits="userSpaceOnUse"
       id="mask-powermask-path-effect242">
      <g
         id="g37"
         style="display:inline;fill:#ffffff;fill-opacity:1;stroke:#000000;stroke-width:9.33883;stroke-miterlimit:4;stroke-dasharray:none;stroke-opacity:1"
         transform="matrix(-0.52791992,-0.32193135,0.32193135,-0.52791992,-188.2757,398.44063)">
        <g
           id="g19"
           style="fill:#ffffff;fill-opacity:1;stroke:#000000;stroke-width:9.33883;stroke-miterlimit:4;stroke-dasharray:none;stroke-opacity:1">
          <ellipse
             cx="208.528"
             cy="72.081001"
             fill="#574f7f"
             rx="34.673"
             ry="51.541"
             transform="matrix(0.996,-0.087,0.087,0.996,-5.489,18.449)"
             id="ellipse17"
             style="fill:#ffffff;fill-opacity:1;stroke:#000000;stroke-width:9.34076;stroke-miterlimit:4;stroke-dasharray:none;stroke-opacity:1" />
        </g>
        <g
           id="g23"
           style="fill:#ffffff;fill-opacity:1;stroke:#000000;stroke-width:9.33883;stroke-miterlimit:4;stroke-dasharray:none;stroke-opacity:1">
          <ellipse
             cx="137.868"
             cy="145.08"
             fill="#574f7f"
             rx="34.673"
             ry="45.050999"
             transform="matrix(0.985,-0.174,0.174,0.985,-23.098,26.145)"
             id="ellipse21"
             style="fill:#ffffff;fill-opacity:1;stroke:#000000;stroke-width:9.33649;stroke-miterlimit:4;stroke-dasharray:none;stroke-opacity:1" />
        </g>
        <g
           id="g27"
           style="fill:#ffffff;fill-opacity:1;stroke:#000000;stroke-width:9.33883;stroke-miterlimit:4;stroke-dasharray:none;stroke-opacity:1">
          <path
             d="m 338.902,196.481 c -44.63,-26.708 -43.927,-59.741 -82.934,-59.741 -39.007,0 -38.304,33.033 -82.934,59.741 -44.63,26.707 -43.224,83.285 -3.514,98.396 39.71,15.111 54.118,-20.031 86.448,-20.031 32.33,0 46.738,35.142 86.448,20.031 39.71,-15.111 41.116,-71.688 -3.514,-98.396 z"
             fill="#574f7f"
             id="path25"
             style="fill:#ffffff;fill-opacity:1;stroke:#000000;stroke-width:9.33883;stroke-miterlimit:4;stroke-dasharray:none;stroke-opacity:1" />
        </g>
        <g
           id="g31"
           style="fill:#ffffff;fill-opacity:1;stroke:#000000;stroke-width:9.33883;stroke-miterlimit:4;stroke-dasharray:none;stroke-opacity:1">
          <ellipse
             cx="303.41"
             cy="72.081001"
             fill="#574f7f"
             rx="51.541"
             ry="34.673"
             transform="matrix(0.087,-0.996,0.996,0.087,205.16,368.053)"
             id="ellipse29"
             style="fill:#ffffff;fill-opacity:1;stroke:#000000;stroke-width:9.34076;stroke-miterlimit:4;stroke-dasharray:none;stroke-opacity:1" />
        </g>
        <g
           id="g35"
           style="fill:#ffffff;fill-opacity:1;stroke:#000000;stroke-width:9.33883;stroke-miterlimit:4;stroke-dasharray:none;stroke-opacity:1">
          <ellipse
             cx="374.069"
             cy="145.08"
             fill="#574f7f"
             rx="45.050999"
             ry="34.673"
             transform="matrix(0.174,-0.985,0.985,0.174,166.236,488.273)"
             id="ellipse33"
             style="fill:#ffffff;fill-opacity:1;stroke:#000000;stroke-width:9.33649;stroke-miterlimit:4;stroke-dasharray:none;stroke-opacity:1" />
        </g>
      </g>
    </mask>
  </defs>
  <sodipodi:namedview
     id="base"
     pagecolor="#ffffff"
     bordercolor="#666666"
     borderopacity="1.0"
     inkscape:pageopacity="0.0"
     inkscape:pageshadow="2"
     inkscape:zoom="0.99454323"
     inkscape:cx="623.0717"
     inkscape:cy="289.9306"
     inkscape:document-units="mm"
     inkscape:current-layer="svg8"
     inkscape:document-rotation="0"
     showgrid="true"
     showguides="true"
     inkscape:object-paths="true"
     inkscape:window-width="1920"
     inkscape:window-height="1028"
     inkscape:window-x="0"
     inkscape:window-y="24"
     inkscape:window-maximized="1">
    <inkscape:grid
       type="xygrid"
       id="grid18"
       visible="true"
       enabled="false" />
  </sodipodi:namedview>
  <metadata
     id="metadata5">
    <rdf:RDF>
      <cc:Work
         rdf:about="">
        <dc:format>image/svg+xml</dc:format>
        <dc:type
           rdf:resource="http://purl.org/dc/dcmitype/StillImage" />
        <dc:title />
      </cc:Work>
    </rdf:RDF>
  </metadata>
  <g
     id="g929"
     transform="rotate(-4.352472,213.88556,115.39034)"
     style="stroke:#000000;stroke-width:3;stroke-miterlimit:4;stroke-dasharray:none;stroke-opacity:1">
    <g
       id="layer4"
       inkscape:label="Circle"
       style="display:inline;stroke:#000000;stroke-width:3;stroke-miterlimit:4;stroke-dasharray:none;stroke-opacity:1" />
    <g
       inkscape:label="Poo"
       id="layer1"
       style="display:inline;stroke:#000000;stroke-width:3;stroke-miterlimit:4;stroke-dasharray:none;stroke-opacity:1" />
    <g
       id="layer2"
       inkscape:label="Paw"
       style="display:inline;stroke:#000000;stroke-width:3;stroke-miterlimit:4;stroke-dasharray:none;stroke-opacity:1" />
    <g
       id="layer3"
       inkscape:label="Bag"
       style="stroke:#000000;stroke-width:3;stroke-miterlimit:4;stroke-dasharray:none;stroke-opacity:1">
      <g
         id="g1041"
         transform="matrix(1.5321269,0,0,1.5321269,-68.11477,-30.989526)"
         style="stroke:#000000;stroke-width:1.95806;stroke-miterlimit:4;stroke-dasharray:none;stroke-opacity:1">
        <g
           id="g1000"
           transform="matrix(-0.1599887,-0.09756288,0.09756288,-0.1599887,50.478155,63.411074)"
           style="stroke:#000000;stroke-width:10.4491;stroke-miterlimit:4;stroke-dasharray:none;stroke-opacity:1" />
        <g
           id="g1154"
           style="stroke:#000000;stroke-width:10.4491;stroke-miterlimit:4;stroke-dasharray:none;stroke-opacity:1"
           transform="matrix(-0.1599887,-0.09756288,0.09756288,-0.1599887,128.72523,131.36891)" />
        <g
           id="g885"
           transform="matrix(-0.1599887,-0.09756288,0.09756288,-0.1599887,129.25439,131.89808)"
           style="stroke:#000000;stroke-width:10.4491;stroke-linecap:butt;stroke-linejoin:round;stroke-miterlimit:4;stroke-dasharray:none;stroke-opacity:1">
          <g
             id="g1082"
             transform="rotate(-8.200143,257.66811,439.62019)"
             style="stroke:#000000;stroke-width:10.4491;stroke-miterlimit:4;stroke-dasharray:none;stroke-opacity:1">
            <path
               style="fill:none;fill-opacity:1;stroke:#000000;stroke-width:10.4491;stroke-linecap:butt;stroke-linejoin:round;stroke-miterlimit:4;stroke-dasharray:none;stroke-opacity:1"
               d="m 400.19106,331.71688 c -19.43772,-10.10145 -51.105,23.93185 -78.42468,23.8114 -33.09225,-0.1459 -61.75285,-32.34854 -94.73759,-29.67921 -28.96022,2.34364 -48.91842,37.11734 -77.90601,39.09397 C 116.9943,367.13385 89.894301,333.41739 57.692782,333.73556 46.975676,333.84145 36.534067,350.44795 27.474795,344.72107 -7.874102,322.37502 10.659788,261.3482 15.617803,219.82341 21.694167,168.93212 53.585844,124.25872 65.779824,74.477674 76.367377,31.254751 54.730563,-25.396705 85.482199,-57.562746 115.5889,-89.054188 170.78459,-89.823611 213.75601,-82.641591 c 35.92946,6.005063 58.65331,48.835123 94.60486,54.70649 52.7094,8.608148 95.287,-24.766265 146.8209,-10.743489 31.83239,8.661841 48.9575,23.904421 57.49932,55.769229 19.28689,71.948726 -28.15185,128.656251 -42.93971,201.662571 -9.64704,47.62657 -12.31644,145.26014 -12.31644,145.26014 -1.62142,19.12306 -39.46815,-23.06392 -57.23388,-32.29647 z"
               id="path1242"
               sodipodi:nodetypes="ssssssssssssssss" />
            <path
               style="fill:none;fill-opacity:1;stroke:#000000;stroke-width:10.4491;stroke-linecap:square;stroke-linejoin:round;stroke-miterlimit:4;stroke-dasharray:none;stroke-opacity:1"
               d="m 449.94501,368.20607 c 0,0 -37.77916,-4.29866 -71.94769,6.93074"
               id="path1252"
               sodipodi:nodetypes="cc" />
            <path
               style="fill:none;fill-opacity:1;stroke:#000000;stroke-width:10.4491;stroke-linecap:round;stroke-linejoin:round;stroke-miterlimit:4;stroke-dasharray:none;stroke-opacity:1"
               d="m 479.07466,62.707302 c 0,0 -35.10642,-2.933176 -44.63254,-15.470592 -4.13032,-5.435954 2.5102,-14.760856 -1.27663,-20.441434 C 422.98809,11.528277 383.77453,2.4955104 383.77453,2.4955104"
               id="path1248"
               sodipodi:nodetypes="cssc" />
            <path
               style="fill:none;fill-opacity:1;stroke:#000000;stroke-width:10.4491;stroke-linecap:round;stroke-linejoin:round;stroke-miterlimit:4;stroke-dasharray:none;stroke-opacity:1"
               d="m 197.66033,-10.288368 c 0,0 -42.83945,-25.622858 -51.92729,-10.482664 C 128.60972,7.7561225 105.3,-31.4036 105.3,-31.4036"
               id="path1250"
               sodipodi:nodetypes="csc" />
            <path
               style="fill:none;fill-opacity:1;stroke:#000000;stroke-width:10.4491;stroke-linecap:butt;stroke-linejoin:round;stroke-miterlimit:4;stroke-dasharray:none;stroke-opacity:1"
               d="M 81.227359,389.11444 C 66.792689,379.43812 60.692814,341.79596 32.442045,345.87494"
               id="path1252-3"
               sodipodi:nodetypes="cc" />
          </g>
        </g>
        <g
           id="g1040"
           transform="matrix(-0.1599887,-0.09756288,0.09756288,-0.1599887,50.478155,63.411074)"
           style="stroke:#000000;stroke-width:10.4491;stroke-miterlimit:4;stroke-dasharray:none;stroke-opacity:1" />
      </g>
    </g>
  </g>
  <g
     id="layer2-6"
     inkscape:label="Paw"
     style="display:inline;stroke-width:3;stroke-miterlimit:4;stroke-dasharray:none"
     transform="translate(-3.2264483,0.01199006)">
    <path
       style="fill:none;stroke:#000000;stroke-width:3;stroke-linecap:round;stroke-linejoin:miter;stroke-miterlimit:4;stroke-dasharray:none;stroke-opacity:1"
       d="m 110.62186,2.6820215 c 0,0 -32.345272,60.3099135 -41.103038,79.8627455 -5.688547,12.700384 -8.187986,28.791443 -3.932232,38.941743 4.255776,10.1503 12.625875,16.63876 21.90859,20.5539 27.6579,9.39224 44.4569,-5.68624 51.52213,-14.28307 15.69393,-20.877 42.89932,-89.568969 51.84414,-110.765711 l 6.1204,-14.5036708"
       id="path861"
       sodipodi:nodetypes="cssccsc" />
    <path
       style="fill:#000000;fill-opacity:1;stroke:none;stroke-width:3;stroke-linecap:round;stroke-linejoin:bevel;paint-order:stroke fill markers;stroke-miterlimit:4;stroke-dasharray:none"
       id="path908"
       sodipodi:type="arc"
       sodipodi:cx="-129.12755"
       sodipodi:cy="-108.75294"
       sodipodi:rx="7.1462145"
       sodipodi:ry="7.1462145"
       sodipodi:start="0"
       sodipodi:end="6.2031096"
       sodipodi:open="true"
       sodipodi:arc-type="arc"
       d="m -121.98133,-108.75294 a 7.1462145,7.1462145 0 0 1 -7.00317,7.14479 7.1462145,7.1462145 0 0 1 -7.28354,-6.85874 7.1462145,7.1462145 0 0 1 6.71157,-7.41938 7.1462145,7.1462145 0 0 1 7.55224,6.56171"
       transform="rotate(-178.66699)" />
    <path
       style="fill:#000000;fill-opacity:1;stroke:none;stroke-width:3;stroke-linecap:round;stroke-linejoin:bevel;paint-order:stroke fill markers;stroke-miterlimit:4;stroke-dasharray:none"
       id="path910"
       sodipodi:type="arc"
       sodipodi:cx="-111.11737"
       sodipodi:cy="-121.82877"
       sodipodi:rx="9.4330025"
       sodipodi:ry="9.4330025"
       sodipodi:start="0"
       sodipodi:end="6.2031096"
       sodipodi:open="true"
       sodipodi:arc-type="arc"
       d="m -101.68437,-121.82877 a 9.4330025,9.4330025 0 0 1 -9.24417,9.43111 9.4330025,9.4330025 0 0 1 -9.61427,-9.05354 9.4330025,9.4330025 0 0 1 8.85926,-9.79357 9.4330025,9.4330025 0 0 1 9.96896,8.66145"
       transform="rotate(-178.66699)" />
    <path
       style="fill:#000000;fill-opacity:1;stroke:none;stroke-width:3;stroke-linecap:round;stroke-linejoin:bevel;paint-order:stroke fill markers;stroke-miterlimit:4;stroke-dasharray:none"
       id="path912"
       sodipodi:type="arc"
       sodipodi:cx="-89.633354"
       sodipodi:cy="-111.84296"
       sodipodi:rx="9.4330025"
       sodipodi:ry="9.4330025"
       sodipodi:start="0"
       sodipodi:end="6.2031096"
       sodipodi:open="true"
       sodipodi:arc-type="arc"
       d="m -80.200352,-111.84296 a 9.4330025,9.4330025 0 0 1 -9.244176,9.43112 9.4330025,9.4330025 0 0 1 -9.614269,-9.05354 9.4330025,9.4330025 0 0 1 8.859268,-9.79357 9.4330025,9.4330025 0 0 1 9.968951,8.66145"
       transform="rotate(-178.66699)" />
    <path
       style="fill:#000000;fill-opacity:1;stroke:none;stroke-width:3;stroke-linecap:round;stroke-linejoin:bevel;paint-order:stroke fill markers;stroke-miterlimit:4;stroke-dasharray:none"
       id="path914"
       sodipodi:type="arc"
       sodipodi:cx="-85.458443"
       sodipodi:cy="-87.868279"
       sodipodi:rx="7.1462145"
       sodipodi:ry="7.1462145"
       sodipodi:start="0"
       sodipodi:end="6.2031096"
       sodipodi:open="true"
       sodipodi:arc-type="arc"
       d="m -78.312228,-87.868279 a 7.1462145,7.1462145 0 0 1 -7.003165,7.144783 7.1462145,7.1462145 0 0 1 -7.283537,-6.85874 7.1462145,7.1462145 0 0 1 6.711567,-7.419373 7.1462145,7.1462145 0 0 1 7.552236,6.561704"
       transform="rotate(-178.66699)" />
    <path
       id="path916"
       style="fill:#000000;fill-opacity:1;stroke:none;stroke-width:3;stroke-linecap:round;stroke-linejoin:bevel;stroke-miterlimit:4;stroke-dasharray:none;paint-order:stroke fill markers"
       d="m 111.41602,99.587679 c 0.2118,0.0065 0.42371,0.0054 0.63543,-0.0033 4.16273,-0.153487 6.89992,-4.510295 8.78121,-7.050492 l 1.02542,0.508503 c 0.22993,0.130762 0.4669,0.248808 0.70987,0.3534 0.97742,0.459176 2.16063,0.498376 3.06603,0.567821 3.8882,-0.142781 6.94766,-3.36989 6.88299,-7.26016 -0.038,-2.363805 -1.24276,-4.555812 -3.21781,-5.8551 l 0.0283,-0.05847 -20.19327,-9.994267 c -0.0763,-0.03951 -0.15316,-0.07783 -0.23081,-0.114823 -0.0243,-0.01121 -0.0486,-0.02288 -0.073,-0.03431 -0.93366,-0.431917 -1.94951,-0.657125 -2.97819,-0.660319 -3.89107,-0.01355 -7.077787,3.088645 -7.168979,6.978674 l 0.0098,0.573532 c 0.143162,2.501113 1.585559,4.744615 3.801609,5.913019 l -0.003,0.0062 1.78501,0.88375 c -1.21273,2.42663 -1.95671,3.564557 -2.00378,5.597666 l 0.0151,0.753895 c 0.27685,4.882939 4.23982,8.744435 9.1283,8.894574 z"
       sodipodi:nodetypes="ccccccccccsccccccccccc" />
  </g>
</svg>
