<svg height="512" viewBox="0 0 61 61" width="512" xmlns="http://www.w3.org/2000/svg"><g id="Page-1" fill="none" fill-rule="evenodd"><g id="045---Dog-Biscuit" fill="rgb(0,0,0)" fill-rule="nonzero"><path id="Shape" d="m50.142 9.942c.3474973-3.19535258-1.0420191-6.33225622-3.642-8.222-3.2796331-2.36385395-7.7280263-2.27085618-10.906.228-3.6684452 2.89786439-4.4953969 8.1276812-1.9 12.016.2565553.3939057.2041139.9133254-.126 1.248l-18.357 18.348c-.3331097.3334258-.8549657.3861132-1.248.126-3.8884294-2.5948923-9.11787471-1.7679993-12.016 1.9-2.50055391 3.1804898-2.59314674 7.6322878-.227 10.914 1.88885852 2.6019876 5.02650425 3.9931899 8.223 3.646-.41447027 3.9446435 1.8022716 7.6955828 5.4577151 9.234976 3.6554434 1.5393931 7.8877043.5042804 10.4200106-2.5484926 2.5323062-3.052773 2.7675881-7.4034204.5792743-10.7114834-.2565553-.3939057-.2041139-.9133254.126-1.248l18.347-18.348c.3344258-.330435.8538669-.3832948 1.248-.127 3.8883188 2.5953969 9.1181356 1.7684452 12.016-1.9 2.4978566-3.1783312 2.5908403-7.6260514.228-10.906-1.8891406-2.6019896-5.0260324-3.99438348-8.223-3.65zm6.434 13.3c-2.2527868 2.8560207-6.3212757 3.5031319-9.349 1.487-1.1871158-.7825414-2.7605094-.6242834-3.768.379l-18.348 18.351c-1.0032834 1.0074906-1.1615414 2.5808842-.379 3.768 1.7873905 2.6997062 1.4900728 6.2729201-.7189197 8.6400978-2.2089926 2.3671777-5.7531471 2.9105226-8.5698319 1.313818-2.8166847-1.5967045-4.1707886-4.9167433-3.2742484-8.0279158.1002625-.3494626.0029622-.7258091-.2541143-.9828857-.2570766-.2570765-.6334231-.3543768-.9828857-.2541143-3.11098109.8963068-6.4307137-.457693-8.02741442-3.2740943-1.59670072-2.8164012-1.05372261-6.3602853 1.3129703-8.5694331s5.93953002-2.5070988 8.63944412-.7204726c1.1868866.7828012 2.7602585.6249629 3.768-.378l18.349-18.348c1.0032834-1.0074906 1.1615414-2.5808842.379-3.768-1.7875059-2.6995758-1.4904094-6.27274943.7183887-8.64004701 2.2087981-2.36729759 5.7528526-2.91090923 8.5696361-1.31447018 2.8167835 1.59643906 4.1711806 4.91629512 3.2749752 8.02751719-.1000772.3492442-.0028702.725292.2539179.9822878s.632757.3545069.9820821.2547122c2.9252119-.8441529 6.0606142.2992815 7.7556548 2.8283715 1.6950405 2.52909 1.5609614 5.8637884-.3316548 8.2486285z"/><circle id="Oval" cx="41" cy="8" r="1"/><circle id="Oval" cx="51" cy="19" r="1"/><circle id="Oval" cx="9" cy="41" r="1"/><circle id="Oval" cx="19" cy="52" r="1"/><circle id="Oval" cx="30" cy="30" r="1"/><circle id="Oval" cx="23" cy="37" r="1"/><circle id="Oval" cx="37" cy="23" r="1"/></g></g></svg>